{
	"asset":{
		"generator":"Khronos glTF Blender I/O v4.0.44",
		"version":"2.0"
	},
	"scene":0,
	"scenes":[
		{
			"name":"Scene",
			"nodes":[
				0,
				1,
				2,
				3,
				4,
				5,
				6,
				7,
				8,
				9,
				10,
				11,
				12,
				13
			]
		}
	],
	"nodes":[
		{
			"mesh":0,
			"name":"Floor",
			"translation":[
				1,
				0,
				1
			]
		},
		{
			"mesh":0,
			"name":"Floor.006",
			"translation":[
				-1,
				0,
				1
			]
		},
		{
			"mesh":0,
			"name":"Floor.007",
			"translation":[
				-1,
				0,
				-1
			]
		},
		{
			"mesh":0,
			"name":"Floor.008",
			"translation":[
				1,
				0,
				-1
			]
		},
		{
			"mesh":1,
			"name":"Wall.007",
			"rotation":[
				0,
				0,
				0.7071068286895752,
				0.7071068286895752
			],
			"translation":[
				2,
				1,
				1
			]
		},
		{
			"mesh":1,
			"name":"Wall.008",
			"rotation":[
				0,
				0,
				0.7071068286895752,
				0.7071068286895752
			],
			"translation":[
				2,
				1,
				-1
			]
		},
		{
			"mesh":1,
			"name":"Wall.009",
			"rotation":[
				0.5,
				0.4999999403953552,
				0.5,
				0.5000000596046448
			],
			"translation":[
				1,
				1,
				-2
			]
		},
		{
			"mesh":1,
			"name":"Wall.010",
			"rotation":[
				0.5,
				0.4999999403953552,
				0.5,
				0.5000000596046448
			],
			"translation":[
				-1,
				1,
				-2
			]
		},
		{
			"mesh":1,
			"name":"Wall.011",
			"rotation":[
				0.7071068286895752,
				0.7071068286895752,
				0,
				5.338509012631221e-08
			],
			"translation":[
				-2,
				1,
				-1
			]
		},
		{
			"mesh":1,
			"name":"Wall.012",
			"rotation":[
				0.7071068286895752,
				0.7071068286895752,
				0,
				5.338509012631221e-08
			],
			"translation":[
				-2,
				1,
				1
			]
		},
		{
			"mesh":2,
			"name":"Ceiling",
			"rotation":[
				0,
				0,
				-1,
				7.549790126404332e-08
			],
			"translation":[
				-1,
				2,
				-1
			]
		},
		{
			"mesh":2,
			"name":"Ceiling.006",
			"rotation":[
				0,
				0,
				-1,
				7.549790126404332e-08
			],
			"translation":[
				1,
				2,
				-1
			]
		},
		{
			"mesh":2,
			"name":"Ceiling.007",
			"rotation":[
				0,
				0,
				-1,
				7.549790126404332e-08
			],
			"translation":[
				-1,
				2,
				1
			]
		},
		{
			"mesh":2,
			"name":"Ceiling.008",
			"rotation":[
				0,
				0,
				-1,
				7.549790126404332e-08
			],
			"translation":[
				1,
				2,
				1
			]
		}
	],
	"materials":[
		{
			"doubleSided":true,
			"name":"main_material",
			"pbrMetallicRoughness":{
				"baseColorTexture":{
					"index":0
				},
				"metallicFactor":0
			}
		}
	],
	"meshes":[
		{
			"name":"Plane.003",
			"primitives":[
				{
					"attributes":{
						"POSITION":0,
						"NORMAL":1,
						"TEXCOORD_0":2
					},
					"indices":3,
					"material":0
				}
			]
		},
		{
			"name":"Plane.004",
			"primitives":[
				{
					"attributes":{
						"POSITION":4,
						"NORMAL":5,
						"TEXCOORD_0":6
					},
					"indices":3,
					"material":0
				}
			]
		},
		{
			"name":"Plane.005",
			"primitives":[
				{
					"attributes":{
						"POSITION":7,
						"NORMAL":8,
						"TEXCOORD_0":9
					},
					"indices":3,
					"material":0
				}
			]
		}
	],
	"textures":[
		{
			"sampler":0,
			"source":0
		}
	],
	"images":[
		{
			"mimeType":"image/png",
			"name":"main-texture.png",
			"uri":"main-texture_png.png"
		}
	],
	"accessors":[
		{
			"bufferView":0,
			"componentType":5126,
			"count":4,
			"max":[
				1,
				0,
				1
			],
			"min":[
				-1,
				0,
				-1
			],
			"type":"VEC3"
		},
		{
			"bufferView":1,
			"componentType":5126,
			"count":4,
			"type":"VEC3"
		},
		{
			"bufferView":2,
			"componentType":5126,
			"count":4,
			"type":"VEC2"
		},
		{
			"bufferView":3,
			"componentType":5123,
			"count":6,
			"type":"SCALAR"
		},
		{
			"bufferView":4,
			"componentType":5126,
			"count":4,
			"max":[
				1,
				0,
				1
			],
			"min":[
				-1,
				0,
				-1
			],
			"type":"VEC3"
		},
		{
			"bufferView":5,
			"componentType":5126,
			"count":4,
			"type":"VEC3"
		},
		{
			"bufferView":6,
			"componentType":5126,
			"count":4,
			"type":"VEC2"
		},
		{
			"bufferView":7,
			"componentType":5126,
			"count":4,
			"max":[
				1,
				0,
				1
			],
			"min":[
				-1,
				0,
				-1
			],
			"type":"VEC3"
		},
		{
			"bufferView":8,
			"componentType":5126,
			"count":4,
			"type":"VEC3"
		},
		{
			"bufferView":9,
			"componentType":5126,
			"count":4,
			"type":"VEC2"
		}
	],
	"bufferViews":[
		{
			"buffer":0,
			"byteLength":48,
			"byteOffset":0,
			"target":34962
		},
		{
			"buffer":0,
			"byteLength":48,
			"byteOffset":48,
			"target":34962
		},
		{
			"buffer":0,
			"byteLength":32,
			"byteOffset":96,
			"target":34962
		},
		{
			"buffer":0,
			"byteLength":12,
			"byteOffset":128,
			"target":34963
		},
		{
			"buffer":0,
			"byteLength":48,
			"byteOffset":140,
			"target":34962
		},
		{
			"buffer":0,
			"byteLength":48,
			"byteOffset":188,
			"target":34962
		},
		{
			"buffer":0,
			"byteLength":32,
			"byteOffset":236,
			"target":34962
		},
		{
			"buffer":0,
			"byteLength":48,
			"byteOffset":268,
			"target":34962
		},
		{
			"buffer":0,
			"byteLength":48,
			"byteOffset":316,
			"target":34962
		},
		{
			"buffer":0,
			"byteLength":32,
			"byteOffset":364,
			"target":34962
		}
	],
	"samplers":[
		{
			"magFilter":9729,
			"minFilter":9987
		}
	],
	"buffers":[
		{
			"byteLength":396,
			"uri":"environment.bin"
		}
	]
}
